<?xml version="1.0" standalone="no"?>
<!DOCTYPE svg PUBLIC "-//W3C//DTD SVG 20010904//EN"
 "http://www.w3.org/TR/2001/REC-SVG-20010904/DTD/svg10.dtd">
<svg version="1.0" xmlns="http://www.w3.org/2000/svg"
 width="200.000000pt" height="35.000000pt" viewBox="0 0 200.000000 35.000000"
 preserveAspectRatio="xMidYMid meet">

<g transform="translate(0.000000,35.000000) scale(0.100000,-0.100000)"
fill="#000000" stroke="none">
<path d="M470 290 c0 -13 7 -20 20 -20 19 0 20 -7 20 -105 0 -87 3 -105 15
-105 12 0 15 18 15 105 0 98 1 105 20 105 13 0 20 7 20 20 0 18 -7 20 -55 20
-48 0 -55 -2 -55 -20z"/>
<path d="M610 185 l0 -125 50 0 c43 0 50 3 50 20 0 16 -7 20 -35 20 -33 0 -35
2 -35 35 0 31 3 35 25 35 18 0 25 5 25 20 0 15 -7 20 -25 20 -21 0 -25 5 -25
30 0 28 3 30 35 30 28 0 35 4 35 20 0 17 -7 20 -50 20 l-50 0 0 -125z"/>
<path d="M766 298 c-5 -16 -36 -213 -36 -228 0 -5 7 -10 15 -10 8 0 15 9 15
20 0 15 7 20 29 20 20 0 30 -6 34 -20 3 -11 13 -20 22 -20 12 0 15 7 11 33 -3
17 -10 61 -16 97 -20 120 -19 120 -46 120 -14 0 -26 -6 -28 -12z m43 -135 c1
-17 -5 -23 -19 -23 -18 0 -20 4 -15 38 3 20 9 48 12 62 6 22 7 21 14 -15 4
-22 8 -50 8 -62z"/>
<path d="M900 290 c-17 -17 -20 -33 -20 -105 0 -72 3 -88 20 -105 37 -37 85
-19 96 38 6 28 4 32 -15 32 -16 0 -21 -6 -21 -25 0 -18 -5 -25 -20 -25 -18 0
-20 7 -20 85 0 78 2 85 20 85 13 0 20 -7 20 -20 0 -14 7 -20 21 -20 18 0 20 4
15 28 -13 52 -60 68 -96 32z"/>
<path d="M1020 185 c0 -118 1 -125 20 -125 17 0 20 7 20 50 0 47 2 50 25 50
23 0 25 -3 25 -50 0 -38 4 -50 15 -50 13 0 15 21 15 125 0 104 -2 125 -15 125
-12 0 -15 -13 -15 -55 0 -52 -1 -55 -25 -55 -24 0 -25 3 -25 55 0 48 -2 55
-20 55 -19 0 -20 -7 -20 -125z"/>
<path d="M1180 185 l0 -125 50 0 c43 0 50 3 50 20 0 16 -7 20 -35 20 -33 0
-35 2 -35 35 0 32 2 35 30 35 23 0 30 4 30 20 0 16 -7 20 -30 20 -27 0 -30 3
-30 30 0 28 3 30 35 30 28 0 35 4 35 20 0 17 -7 20 -50 20 l-50 0 0 -125z"/>
<path d="M1310 185 c0 -118 1 -125 20 -125 17 0 20 7 20 51 0 43 3 50 18 47
13 -2 18 -15 20 -51 2 -37 7 -47 21 -47 16 0 17 7 13 53 -2 28 -9 57 -14 64
-5 7 -5 14 2 18 5 3 10 26 10 50 0 51 -16 65 -74 65 l-36 0 0 -125z m75 50 c0
-20 -6 -31 -17 -33 -15 -3 -18 4 -18 33 0 29 3 36 18 33 11 -2 17 -13 17 -33z"/>
<path d="M1510 185 l0 -125 50 0 c43 0 50 3 50 20 0 16 -7 20 -30 20 l-30 0 0
105 c0 98 -1 105 -20 105 -19 0 -20 -7 -20 -125z"/>
<path d="M1630 185 l0 -125 55 0 c48 0 55 2 55 20 0 16 -7 20 -35 20 -33 0
-35 2 -35 35 0 31 3 35 25 35 18 0 25 5 25 20 0 15 -7 20 -25 20 -21 0 -25 5
-25 30 0 28 3 30 35 30 28 0 35 4 35 20 0 18 -7 20 -55 20 l-55 0 0 -125z"/>
<path d="M1780 290 c-17 -17 -20 -33 -20 -105 0 -72 3 -88 20 -105 25 -25 55
-25 80 0 17 17 20 33 20 105 0 72 -3 88 -20 105 -11 11 -29 20 -40 20 -11 0
-29 -9 -40 -20z m60 -105 c0 -78 -2 -85 -20 -85 -18 0 -20 7 -20 85 0 78 2 85
20 85 18 0 20 -7 20 -85z"/>
<path d="M132 81 c-15 -49 -15 -64 1 -58 6 2 19 -2 28 -10 15 -12 18 -9 33 27
21 52 20 60 -3 60 -11 0 -23 5 -26 10 -12 19 -22 10 -33 -29z"/>
<path d="M275 110 c-3 -5 -15 -10 -26 -10 -23 0 -24 -8 -3 -60 15 -36 18 -39
33 -27 9 8 22 12 29 10 15 -6 15 9 0 58 -11 39 -21 48 -33 29z"/>
</g>
</svg>
