<?xml version="1.0" standalone="no"?>
<!DOCTYPE svg PUBLIC "-//W3C//DTD SVG 20010904//EN"
 "http://www.w3.org/TR/2001/REC-SVG-20010904/DTD/svg10.dtd">
<svg version="1.0" xmlns="http://www.w3.org/2000/svg"
 width="200.000000pt" height="35.000000pt" viewBox="0 0 200.000000 35.000000"
 preserveAspectRatio="xMidYMid meet">

<g transform="translate(0.000000,35.000000) scale(0.100000,-0.100000)"
fill="#000000" stroke="none">
<path d="M132 81 c-15 -49 -15 -64 1 -58 6 2 19 -2 28 -10 15 -12 18 -9 33 27
21 52 20 60 -3 60 -11 0 -23 5 -26 10 -12 19 -22 10 -33 -29z"/>
<path d="M275 110 c-3 -5 -15 -10 -26 -10 -23 0 -24 -8 -3 -60 15 -36 18 -39
33 -27 9 8 22 12 29 10 15 -6 15 9 0 58 -11 39 -21 48 -33 29z"/>
</g>
</svg>
